<svg width="39" height="41" viewBox="0 0 39 41" fill="none" xmlns="http://www.w3.org/2000/svg">
<path d="M29.7502 15.5789L29.5922 13.4493C29.4475 11.4983 27.7615 9.9868 25.7303 9.9868H21.5918M6.8335 36.0833H4.45544C2.2085 36.0833 0.433447 34.2477 0.593535 32.0896L1.9763 13.4493C2.12102 11.4983 3.80694 9.9868 5.8382 9.9868H9.97663M9.97663 9.9868V6.25873C9.97663 3.1703 12.5768 0.666626 15.7842 0.666626C18.9917 0.666626 21.5918 3.1703 21.5918 6.25873V9.9868M9.97663 9.9868H21.5918M29.7502 27.75C29.7502 30.0511 27.8847 31.9166 25.5835 31.9166C23.2823 31.9166 21.4168 30.0511 21.4168 27.75M17.2502 40.25H33.9168C36.218 40.25 38.0835 38.3845 38.0835 36.0833V25.6666C38.0835 23.3654 36.218 21.5 33.9168 21.5H17.2502C14.949 21.5 13.0835 23.3654 13.0835 25.6666V36.0833C13.0835 38.3845 14.949 40.25 17.2502 40.25Z" stroke="#666666" stroke-linecap="round"/>
</svg>
