<svg width="52" height="41" viewBox="0 0 52 41" fill="none" xmlns="http://www.w3.org/2000/svg">
<path d="M30.6665 33.8333V1.83333C30.6665 1.09695 30.1069 0.5 29.4165 0.5H1.9165C1.22615 0.5 0.666504 1.09695 0.666504 1.83333V33.8333C0.666504 34.5697 1.22615 35.1667 1.9165 35.1667H5.6665M30.6665 33.8333C30.6665 34.5697 30.1069 35.1667 29.4165 35.1667H15.6665M30.6665 33.8333V9.83333C30.6665 9.09695 31.2261 8.5 31.9165 8.5H40.1487C40.4803 8.5 40.7982 8.64048 41.0326 8.89052L50.3004 18.7761C50.5348 19.0262 50.6665 19.3653 50.6665 19.719V33.8333C50.6665 34.5697 50.1069 35.1667 49.4165 35.1667H45.6665M30.6665 33.8333C30.6665 34.5697 31.2261 35.1667 31.9165 35.1667H35.6665M5.6665 35.1667C5.6665 38.1122 7.90508 40.5 10.6665 40.5C13.4279 40.5 15.6665 38.1122 15.6665 35.1667M5.6665 35.1667C5.6665 32.2211 7.90508 29.8333 10.6665 29.8333C13.4279 29.8333 15.6665 32.2211 15.6665 35.1667M35.6665 35.1667C35.6665 38.1122 37.9051 40.5 40.6665 40.5C43.4279 40.5 45.6665 38.1122 45.6665 35.1667M35.6665 35.1667C35.6665 32.2211 37.9051 29.8333 40.6665 29.8333C43.4279 29.8333 45.6665 32.2211 45.6665 35.1667" stroke="#666666"/>
</svg>
