<svg width="16" height="16" viewBox="0 0 16 16" fill="none" xmlns="http://www.w3.org/2000/svg">
<path d="M2.375 3H2.75395C3.39184 3 3.9274 3.48031 3.99658 4.11444L4.50342 8.76056C4.5726 9.39469 5.10816 9.875 5.74605 9.875H11.1538C11.7252 9.875 12.2238 9.48755 12.365 8.93389L13.2275 5.55194C13.429 4.76159 12.8319 3.99306 12.0162 3.99306H4.625M4.64047 12.1406H5.10922M4.64047 12.6093H5.10922M11.5155 12.1406H11.9842M11.5155 12.6093H11.9842M5.5 12.375C5.5 12.7202 5.22018 13 4.875 13C4.52982 13 4.25 12.7202 4.25 12.375C4.25 12.0298 4.52982 11.75 4.875 11.75C5.22018 11.75 5.5 12.0298 5.5 12.375ZM12.375 12.375C12.375 12.7202 12.0952 13 11.75 13C11.4048 13 11.125 12.7202 11.125 12.375C11.125 12.0298 11.4048 11.75 11.75 11.75C12.0952 11.75 12.375 12.0298 12.375 12.375Z" stroke="white" stroke-linecap="round"/>
</svg>
