<svg width="496" height="346" viewBox="0 0 496 346" fill="none" xmlns="http://www.w3.org/2000/svg">
<path fill-rule="evenodd" clip-rule="evenodd" d="M270.512 0.0937197C309.368 -1.12885 347.033 9.6796 379.843 28.4321C414.358 48.159 441.535 75.5512 459.966 108.375C481.123 146.054 505.589 188.016 492.16 228.46C478.659 269.12 427.01 285.53 391.77 313.757C351.246 346.216 324.785 405.494 270.512 405.997C216.308 406.499 192.292 343.369 147.427 316.02C100.151 287.201 15.4491 292.07 1.81857 242.203C-12.116 191.223 57.5261 154.12 91.5032 111.426C114.033 83.1166 134.762 54.9454 166.604 35.1416C197.79 15.7457 232.614 1.28617 270.512 0.0937197Z" fill="#A60100"/>
</svg>
