<svg width="35" height="35" viewBox="0 0 35 35" fill="none" xmlns="http://www.w3.org/2000/svg">
<path d="M28.5469 9.84375H6.45311C6.18398 9.84501 5.92452 9.94424 5.72323 10.1229C5.52193 10.3015 5.39259 10.5474 5.35936 10.8145L3.41796 28.3145C3.40069 28.4669 3.4157 28.6213 3.46202 28.7676C3.50833 28.9139 3.58491 29.0488 3.68678 29.1636C3.78864 29.2784 3.91352 29.3704 4.05329 29.4337C4.19305 29.4971 4.34459 29.5303 4.49804 29.5312H30.5019C30.6554 29.5303 30.8069 29.4971 30.9467 29.4337C31.0865 29.3704 31.2113 29.2784 31.3132 29.1636C31.4151 29.0488 31.4917 28.9139 31.538 28.7676C31.5843 28.6213 31.5993 28.4669 31.582 28.3145L29.6406 10.8145C29.6074 10.5474 29.478 10.3015 29.2768 10.1229C29.0755 9.94424 28.816 9.84501 28.5469 9.84375V9.84375Z" stroke="#191C1F" stroke-width="1.5" stroke-linecap="round" stroke-linejoin="round"/>
<path d="M12.0312 14.2188V9.84375C12.0313 8.39335 12.6074 7.00235 13.633 5.97676C14.6586 4.95117 16.0496 4.375 17.5 4.375C18.9504 4.375 20.3414 4.95117 21.367 5.97676C22.3926 7.00235 22.9688 8.39335 22.9688 9.84375V14.2188" stroke="#191C1F" stroke-width="1.5" stroke-linecap="round" stroke-linejoin="round"/>
</svg>
