<svg width="35" height="35" viewBox="0 0 35 35" fill="none" xmlns="http://www.w3.org/2000/svg">
<path d="M30.625 24.2403V10.7598C30.624 10.5651 30.5716 10.3741 30.4732 10.2061C30.3748 10.038 30.2338 9.89894 30.0645 9.80278L18.0332 3.03521C17.8711 2.94161 17.6872 2.89233 17.5 2.89233C17.3128 2.89233 17.1289 2.94161 16.9668 3.03521L4.93555 9.80278C4.76622 9.89894 4.62524 10.038 4.52683 10.2061C4.42842 10.3741 4.37605 10.5651 4.375 10.7598V24.2403C4.37605 24.435 4.42842 24.626 4.52683 24.794C4.62524 24.9621 4.76622 25.1012 4.93555 25.1973L16.9668 31.9649C17.1289 32.0585 17.3128 32.1078 17.5 32.1078C17.6872 32.1078 17.8711 32.0585 18.0332 31.9649L30.0645 25.1973C30.2338 25.1012 30.3748 24.9621 30.4732 24.794C30.5716 24.626 30.624 24.435 30.625 24.2403V24.2403Z" stroke="#191C1F" stroke-width="1.5" stroke-linecap="round" stroke-linejoin="round"/>
<path d="M24.1992 20.8496V13.7402L10.9375 6.42578" stroke="#191C1F" stroke-width="1.5" stroke-linecap="round" stroke-linejoin="round"/>
<path d="M30.4746 10.1992L17.623 17.5L4.52539 10.1992" stroke="#191C1F" stroke-width="1.5" stroke-linecap="round" stroke-linejoin="round"/>
<path d="M17.623 17.5L17.5 32.1016" stroke="#191C1F" stroke-width="1.5" stroke-linecap="round" stroke-linejoin="round"/>
</svg>
