<svg width="20" height="20" viewBox="0 0 20 20" fill="none" xmlns="http://www.w3.org/2000/svg">
<rect width="20" height="20" fill="white"/>
<path d="M16.8131 17.5202C17.0084 17.7155 17.325 17.7155 17.5202 17.5202C17.7155 17.325 17.7155 17.0084 17.5202 16.8131L16.8131 17.5202ZM14.1667 8.83334C14.1667 11.7789 11.7789 14.1667 8.83334 14.1667V15.1667C12.3311 15.1667 15.1667 12.3311 15.1667 8.83334H14.1667ZM8.83334 14.1667C5.88782 14.1667 3.5 11.7789 3.5 8.83334H2.5C2.5 12.3311 5.33553 15.1667 8.83334 15.1667V14.1667ZM3.5 8.83334C3.5 5.88782 5.88782 3.5 8.83334 3.5V2.5C5.33553 2.5 2.5 5.33553 2.5 8.83334H3.5ZM8.83334 3.5C11.7789 3.5 14.1667 5.88782 14.1667 8.83334H15.1667C15.1667 5.33553 12.3311 2.5 8.83334 2.5V3.5ZM12.6465 13.3536L16.8131 17.5202L17.5202 16.8131L13.3536 12.6465L12.6465 13.3536Z" fill="#666666"/>
</svg>
