<?xml version="1.0" encoding="UTF-8"?>
<svg xmlns="http://www.w3.org/2000/svg" xmlns:xlink="http://www.w3.org/1999/xlink" width="20px" height="20px" viewBox="0 0 20 20" version="1.1">
<g id="surface1">
<path style=" stroke:none;fill-rule:nonzero;fill:rgb(0%,0%,0%);fill-opacity:1;" d="M 6.90625 4.210938 C 6.117188 5.394531 6.050781 6.183594 6.511719 7.5 C 6.90625 8.421875 7.566406 9.210938 8.027344 9.210938 C 8.488281 9.210938 7.761719 10.132812 6.382812 11.25 C 5.066406 12.367188 3.949219 13.816406 3.949219 14.539062 C 3.949219 16.382812 4.867188 16.050781 5.722656 13.816406 C 7.039062 10.328125 12.699219 10.328125 14.011719 13.816406 C 14.800781 15.988281 15.789062 16.449219 15.789062 14.738281 C 15.789062 14.144531 14.738281 12.632812 13.421875 11.449219 C 12.171875 10.199219 11.449219 9.210938 11.84375 9.210938 C 12.238281 9.210938 12.828125 8.421875 13.222656 7.5 C 14.144531 5 12.5 2.632812 9.867188 2.632812 C 8.550781 2.632812 7.566406 3.15625 6.90625 4.210938 Z M 11.90625 5 C 13.027344 6.382812 11.90625 8.222656 9.867188 8.222656 C 7.828125 8.222656 6.710938 6.382812 7.828125 5 C 8.355469 4.40625 9.210938 3.949219 9.867188 3.949219 C 10.527344 3.949219 11.382812 4.40625 11.90625 5 Z M 11.90625 5 "/>
</g>
</svg>
